<?xml version="1.0" encoding="utf-8"?>
<!-- Generator: Adobe Illustrator 28.0.0, SVG Export Plug-In . SVG Version: 6.00 Build 0)  -->
<svg version="1.1" id="Layer_1" xmlns="http://www.w3.org/2000/svg" xmlns:xlink="http://www.w3.org/1999/xlink" x="0px" y="0px"
	 width="370px" height="370px" viewBox="0 0 370 370" enable-background="new 0 0 370 370" xml:space="preserve">
<path fill="#CCCCCB" d="M185,370C82.99,370,0,287.01,0,185C0,82.99,82.99,0,185,0c102.01,0,185,82.99,185,185
	C370,287.01,287.01,370,185,370z M185,29.87C99.46,29.87,29.87,99.46,29.87,185c0,85.54,69.59,155.13,155.13,155.13
	c85.54,0,155.13-69.59,155.13-155.13C340.13,99.46,270.54,29.87,185,29.87z"/>
<path fill="#CCCCCB" d="M249.67,302.4c-4.53,0-9-2.05-11.94-5.94c-10.86-14.4-28.83-31.56-52.74-31.56
	c-23.91,0-41.88,17.16-52.74,31.56c-4.97,6.59-14.34,7.89-20.92,2.93c-6.59-4.97-7.9-14.34-2.93-20.92
	c21.14-28.01,48.33-43.44,76.59-43.44s55.45,15.43,76.59,43.44c4.97,6.59,3.66,15.95-2.93,20.92
	C255.97,301.42,252.81,302.4,249.67,302.4z"/>
<circle fill="#CCCCCB" cx="108.7" cy="142.7" r="38.15"/>
<circle fill="#CCCCCB" cx="261.3" cy="142.7" r="38.15"/>
</svg>
