<svg xmlns="http://www.w3.org/2000/svg" xmlns:xlink="http://www.w3.org/1999/xlink" x="0px" y="0px" width="96px"
	height="96px" viewBox="0 0 96 96" enable-background="new 0 0 96 96" xml:space="preserve">
	<path fill="#548640" d="M24.65,5.32c-6.87,9.44-13.57,19-20.09,28.69c-3.93,5.84,2.7,15.19,9.6,12.49
			c20.78-8.15,40.35-19.72,62.4-24.23c-2.18-5.18-4.37-10.36-6.55-15.54c-6.63,4.33-13.81,7.7-20.55,11.86
			c-6.97,4.3-13.05,9.61-18.43,15.75C20.01,46.92,9.25,60.25,1.35,75.04c-2.77,5.19,0.56,13.45,7.34,12.79
			c14.36-1.39,26.69-13.41,38.12-21.27c12.45-8.57,26.51-15.46,40.71-20.61c-3.2-4.16-6.4-8.32-9.6-12.49
			c-5.39,8.67-13.27,15.96-20.1,23.5c-7.36,8.12-14.73,16.25-22.09,24.37c-4.95,5.46-1.53,14.31,6.01,14.51
			c16.51,0.44,30.96-7.37,44.72-15.59c-4.26-2.45-8.53-4.89-12.79-7.34c0.2,2.5-3.13,6.97-4.26,9.18
			c-3.34,6.54,2.17,14.38,9.6,12.49c3.62-0.92,7.03-2.31,10.35-4.02c9.72-5.03,1.13-19.7-8.58-14.68c-2.05,1.06-4.05,1.74-6.29,2.31
			c3.2,4.16,6.4,8.32,9.6,12.49c2.75-5.39,7.09-11.45,6.58-17.76c-0.5-6.21-6.9-10.86-12.79-7.34C66.7,72.25,55.2,79.2,41.74,78.84
			c2,4.84,4.01,9.67,6.01,14.51c7.8-8.6,15.59-17.2,23.39-25.81c7.41-8.17,15.61-16.1,21.46-25.51c3.73-6-2.54-15.05-9.6-12.49
			c-13.9,5.04-28.02,11.42-40.46,19.44c-5.82,3.75-11.34,7.93-17,11.9c-2.83,1.98-5.69,3.92-8.63,5.72
			c-2.22,1.36-5.51,3.95-8.21,4.21c2.45,4.26,4.89,8.53,7.34,12.79c7.24-13.56,16.91-25.73,27.02-37.26
			c4.87-5.56,10.08-10.19,16.44-13.97c6.32-3.76,12.94-6.96,19.1-10.98c8.18-5.34,2.94-17.48-6.55-15.54
			C49.96,10.4,30.44,21.95,9.64,30.11c3.2,4.16,6.4,8.32,9.6,12.49c6.52-9.69,13.21-19.25,20.09-28.69
			c2.7-3.71,0.63-9.48-3.05-11.63C31.98-0.25,27.36,1.59,24.65,5.32L24.65,5.32z" />
</svg>